HIERARCHY
ROOT root
{
	OFFSET	0	13.1	24.9
	CHANNELS 6  Xposition Yposition Zposition Xrotation Yrotation Zrotation
	JOINT spine_1
	{
		OFFSET	0	9.99999	0
		CHANNELS 3  Xrotation Yrotation Zrotation
		JOINT spine_2
		{
			OFFSET	0	112	-10
			CHANNELS 3  Xrotation Yrotation Zrotation
			JOINT spine_3
			{
				OFFSET	0	206.5	19.3
				CHANNELS 3  Xrotation Yrotation Zrotation
				JOINT spine_4
				{
					OFFSET	0	110.4	14.6
					CHANNELS 3  Xrotation Yrotation Zrotation
					JOINT neck_1
					{
						OFFSET	0	71.8	-50.3
						CHANNELS 3  Xrotation Yrotation Zrotation
						JOINT neck_2
						{
							OFFSET	0	86.2	-25.8
							CHANNELS 3  Xrotation Yrotation Zrotation
							JOINT head_ee
							{
								OFFSET	0	179.8	-8.7
								CHANNELS 3  Xrotation Yrotation Zrotation
								End Site
								{
									OFFSET	1	0	0
								}
							}
						}
					}
					JOINT left_clavicle
					{
						OFFSET	-43.2	22.4	-70.8
						CHANNELS 3  Xrotation Yrotation Zrotation
						JOINT left_shoulder
						{
							OFFSET	-93.9	-5.79999	48.7
							CHANNELS 3  Xrotation Yrotation Zrotation
							JOINT left_elbow
							{
								OFFSET	-291.4	-30.8	15.2
								CHANNELS 3  Xrotation Yrotation Zrotation
								JOINT left_lowarm_twist
								{
									OFFSET	-110.7	-3.89999	13.6
									CHANNELS 3  Xrotation Yrotation Zrotation
									JOINT left_hand
									{
										OFFSET	-110.7	-3.89999	13.6
										CHANNELS 3  Xrotation Yrotation Zrotation
										JOINT left_ee
										{
											OFFSET	-80.8	-5.10001	12.1
											CHANNELS 3  Xrotation Yrotation Zrotation
											End Site
											{
												OFFSET	1	0	0
											}
										}
									}
								}
							}
						}
					}
					JOINT right_clavicle
					{
						OFFSET	43.2	22.4	-70.8
						CHANNELS 3  Xrotation Yrotation Zrotation
						JOINT right_shoulder
						{
							OFFSET	93.9	-5.79999	48.7
							CHANNELS 3  Xrotation Yrotation Zrotation
							JOINT right_elbow
							{
								OFFSET	291.4	-30.8	15.2
								CHANNELS 3  Xrotation Yrotation Zrotation
								JOINT right_lowarm_twist
								{
									OFFSET	110.7	-3.89999	13.6
									CHANNELS 3  Xrotation Yrotation Zrotation
									JOINT right_hand
									{
										OFFSET	110.7	-3.89999	13.6
										CHANNELS 3  Xrotation Yrotation Zrotation
										JOINT right_ee
										{
											OFFSET	80.8	-5.10001	12.1
											CHANNELS 3  Xrotation Yrotation Zrotation
											End Site
											{
												OFFSET	1	0	0
											}
										}
									}
								}
							}
						}
					}
				}
			}
		}
	}
	JOINT left_hip
	{
		OFFSET	-82.8	-127.5	0.300001
		CHANNELS 3  Xrotation Yrotation Zrotation
		JOINT left_knee
		{
			OFFSET	-28.2	-396.7	2.2
			CHANNELS 3  Xrotation Yrotation Zrotation
			JOINT left_ankle
			{
				OFFSET	-11.7	-411.3	35.4
				CHANNELS 3  Xrotation Yrotation Zrotation
				JOINT left_toes
				{
					OFFSET	0	-60	-88.6
					CHANNELS 3  Xrotation Yrotation Zrotation
					JOINT left_foot_ee
					{
						OFFSET	-22.5	-16.5	-42.2
						CHANNELS 3  Xrotation Yrotation Zrotation
						End Site
						{
							OFFSET	1	0	0
						}
					}
				}
			}
		}
	}
	JOINT right_hip
	{
		OFFSET	82.8	-127.5	0.300001
		CHANNELS 3  Xrotation Yrotation Zrotation
		JOINT right_knee
		{
			OFFSET	28.2	-396.7	2.2
			CHANNELS 3  Xrotation Yrotation Zrotation
			JOINT right_ankle
			{
				OFFSET	11.7	-411.3	35.4
				CHANNELS 3  Xrotation Yrotation Zrotation
				JOINT right_toes
				{
					OFFSET	0	-60	-88.6
					CHANNELS 3  Xrotation Yrotation Zrotation
					JOINT right_foot_ee
					{
						OFFSET	22.5	-16.5	-42.2
						CHANNELS 3  Xrotation Yrotation Zrotation
						End Site
						{
							OFFSET	1	0	0
						}
					}
				}
			}
		}
	}
}
MOTION
Frames: 6
Frame Time: 0.02
900.89773116 603.826 -1751.63382341 -27.4367849606 24.69617183 15.1830653007 11.7072 -0.0525637 -0.78319 11.7075 -0.00262229 -0.784947 11.7067 0.00321424 -0.784945 11.7058 -0.12079 -0.775603 -21.4554 6.69851 0.610791 -21.7128 12.6285 3.56699 -0.0 0.0 -0.0 3.43018 21.4148 7.40411 -26.3486 -32.7963 46.9216 1.9361 -43.7989 0.778346 -51.495 -4.24798 4.7588 3.27369 20.2434 28.9857 -0.0 0.0 -0.0 10.6454 5.5496 -21.2197 -81.61 61.0761 -35.1556 0.182874 5.17644 -0.00826662 -63.8777 5.76857 -5.20544 1.26106 25.3438 2.53603 0.0 0.0 0.0 41.1563 -5.92956 -2.9727 -18.8056 0.30794 2.85651 34.9977 24.128 -4.63753 -0.339223 0.0 0.0 -0.0 0.0 -0.0 52.6801 20.6383 -4.91663 -52.4876 1.44566 -7.64771 20.388 20.47 3.13274 40.2779 -0.0 -0.0 0.0 0.0 0.0 
900.64753263 603.826 -1751.12359401 -27.4810537089 24.8806346322 15.2886508566 11.7072 -0.0525637 -0.78319 11.7075 -0.00262229 -0.784947 11.7067 0.00321424 -0.784945 11.7058 -0.12079 -0.775603 -21.4554 6.69851 0.610791 -21.7128 12.6285 3.56699 -0.0 0.0 -0.0 3.43018 21.4148 7.40411 -26.3486 -32.7963 46.9216 1.9361 -43.7989 0.778346 -51.495 -4.24798 4.7588 3.27369 20.2434 28.9857 -0.0 0.0 -0.0 10.6454 5.5496 -21.2197 -81.61 61.0761 -35.1556 0.182874 5.17644 -0.00826662 -63.8777 5.76857 -5.20544 1.26106 25.3438 2.53603 0.0 0.0 0.0 41.1563 -5.92956 -2.9727 -18.8056 0.30794 2.85651 34.9977 24.128 -4.63753 -0.339223 0.0 0.0 -0.0 0.0 -0.0 52.6801 20.6383 -4.91663 -52.4876 1.44566 -7.64771 20.388 20.47 3.13274 40.2779 -0.0 -0.0 0.0 0.0 0.0 
889.293086768 609.387 -1753.54134557 -27.1085208515 22.747963042 14.5789055725 11.6442 0.131969 -0.898537 11.6446 0.188876 -0.88832 11.6407 0.19652 -0.88666 11.6396 0.0540285 -0.906568 -22.6091 7.96024 3.17974 -22.9168 13.8939 6.67697 -0.0 0.0 -0.0 3.79676 19.0505 7.9198 -25.435 -27.3725 47.7152 2.07811 -45.8254 0.878449 -53.2098 -4.45241 4.84016 2.20117 15.6663 20.4549 -0.0 0.0 -0.0 11.0435 6.46868 -22.1056 -88.2908 62.8785 -29.0704 0.267514 7.54894 -0.0176485 -69.0007 6.41855 -5.29217 0.569989 21.123 5.19658 0.0 0.0 0.0 38.1585 -5.62447 -3.52906 -13.2055 0.314702 1.99766 34.4102 26.49 -4.64261 -0.303014 0.0 0.0 -0.0 0.0 -0.0 58.6538 17.648 -8.51228 -41.3961 0.557966 -6.1926 23.9026 20.0566 3.58648 30.3697 -0.0 -0.0 0.0 0.0 0.0 
889.342961144 609.387 -1753.64791435 -27.100857598 22.7122233733 14.5590726509 11.6442 0.131969 -0.898537 11.6446 0.188876 -0.88832 11.6407 0.19652 -0.88666 11.6396 0.0540285 -0.906568 -22.6091 7.96024 3.17974 -22.9168 13.8939 6.67697 -0.0 0.0 -0.0 3.79676 19.0505 7.9198 -25.435 -27.3725 47.7152 2.07811 -45.8254 0.878449 -53.2098 -4.45241 4.84016 2.20117 15.6663 20.4549 -0.0 0.0 -0.0 11.0435 6.46868 -22.1056 -88.2908 62.8785 -29.0704 0.267514 7.54894 -0.0176485 -69.0007 6.41855 -5.29217 0.569989 21.123 5.19658 0.0 0.0 0.0 38.1585 -5.62447 -3.52906 -13.2055 0.314702 1.99766 34.4102 26.49 -4.64261 -0.303014 0.0 0.0 -0.0 0.0 -0.0 58.6538 17.648 -8.51228 -41.3961 0.557966 -6.1926 23.9026 20.0566 3.58648 30.3697 -0.0 -0.0 0.0 0.0 0.0 
889.48894405 609.387 -1753.95873027 -27.0785807792 22.6079048399 14.5012503005 11.6442 0.131969 -0.898537 11.6446 0.188876 -0.88832 11.6407 0.19652 -0.88666 11.6396 0.0540285 -0.906568 -22.6091 7.96024 3.17974 -22.9168 13.8939 6.67697 -0.0 0.0 -0.0 3.79676 19.0505 7.9198 -25.435 -27.3725 47.7152 2.07811 -45.8254 0.878449 -53.2098 -4.45241 4.84016 2.20117 15.6663 20.4549 -0.0 0.0 -0.0 11.0435 6.46868 -22.1056 -88.2908 62.8785 -29.0704 0.267514 7.54894 -0.0176485 -69.0007 6.41855 -5.29217 0.569989 21.123 5.19658 0.0 0.0 0.0 38.1585 -5.62447 -3.52906 -13.2055 0.314702 1.99766 34.4102 26.49 -4.64261 -0.303014 0.0 0.0 -0.0 0.0 -0.0 58.6538 17.648 -8.51228 -41.3961 0.557966 -6.1926 23.9026 20.0566 3.58648 30.3697 -0.0 -0.0 0.0 0.0 0.0 
890.007422938 609.387 -1755.04951507 -27.0012673182 22.2408429766 14.2985756922 11.6442 0.131969 -0.898537 11.6446 0.188876 -0.88832 11.6407 0.19652 -0.88666 11.6396 0.0540285 -0.906568 -22.6091 7.96024 3.17974 -22.9168 13.8939 6.67697 -0.0 0.0 -0.0 3.79676 19.0505 7.9198 -25.435 -27.3725 47.7152 2.07811 -45.8254 0.878449 -53.2098 -4.45241 4.84016 2.20117 15.6663 20.4549 -0.0 0.0 -0.0 11.0435 6.46868 -22.1056 -88.2908 62.8785 -29.0704 0.267514 7.54894 -0.0176485 -69.0007 6.41855 -5.29217 0.569989 21.123 5.19658 0.0 0.0 0.0 38.1585 -5.62447 -3.52906 -13.2055 0.314702 1.99766 34.4102 26.49 -4.64261 -0.303014 0.0 0.0 -0.0 0.0 -0.0 58.6538 17.648 -8.51228 -41.3961 0.557966 -6.1926 23.9026 20.0566 3.58648 30.3697 -0.0 -0.0 0.0 0.0 0.0 
